<?xml version="1.0" encoding="UTF-8" standalone="no"?>
<!DOCTYPE svg PUBLIC "-//W3C//DTD SVG 1.1//EN"
 "http://www.w3.org/Graphics/SVG/1.1/DTD/svg11.dtd">
<!-- Generated by graphviz version 2.43.0 (0)
 -->
<!-- Title: cycle_2 Pages: 1 -->
<svg width="150pt" height="28pt"
 viewBox="0.00 0.00 150.00 28.00" xmlns="http://www.w3.org/2000/svg" xmlns:xlink="http://www.w3.org/1999/xlink">
<g id="graph0" class="graph" transform="scale(1 1) rotate(0) translate(4 24)">
<title>cycle_2</title>
<polygon fill="white" stroke="transparent" points="-4,4 -4,-24 146,-24 146,4 -4,4"/>
<!-- Node1 -->
<g id="node1" class="node">
<title>Node1</title>
<g id="a_node1"><a xlink:title=" ">
<polygon fill="#bfbfbf" stroke="black" points="0,-0.5 0,-19.5 53,-19.5 53,-0.5 0,-0.5"/>
<text text-anchor="middle" x="26.5" y="-7.5" font-family="Helvetica,sans-Serif" font-size="10.00">cycle_2</text>
</a>
</g>
</g>
<!-- Node2 -->
<g id="node2" class="node">
<title>Node2</title>
<g id="a_node2"><a xlink:href="main_8c.html#ab7a04a4601dde32b038dcb67d8d26de4" target="_top" xlink:title=" ">
<polygon fill="white" stroke="black" points="89,-0.5 89,-19.5 142,-19.5 142,-0.5 89,-0.5"/>
<text text-anchor="middle" x="115.5" y="-7.5" font-family="Helvetica,sans-Serif" font-size="10.00">cycle_1</text>
</a>
</g>
</g>
<!-- Node1&#45;&gt;Node2 -->
<g id="edge1" class="edge">
<title>Node1&#45;&gt;Node2</title>
<path fill="none" stroke="midnightblue" d="M53.13,-3.78C61.11,-3.28 70.07,-3.13 78.62,-3.34"/>
<polygon fill="midnightblue" stroke="midnightblue" points="78.61,-6.85 88.75,-3.78 78.91,0.15 78.61,-6.85"/>
</g>
<!-- Node2&#45;&gt;Node1 -->
<g id="edge2" class="edge">
<title>Node2&#45;&gt;Node1</title>
<path fill="none" stroke="midnightblue" d="M88.75,-16.22C80.76,-16.72 71.8,-16.87 63.26,-16.65"/>
<polygon fill="midnightblue" stroke="midnightblue" points="63.27,-13.15 53.13,-16.22 62.97,-20.15 63.27,-13.15"/>
</g>
</g>
</svg>
