<?xml version="1.0" encoding="UTF-8" standalone="no"?>
<!DOCTYPE svg PUBLIC "-//W3C//DTD SVG 1.1//EN"
 "http://www.w3.org/Graphics/SVG/1.1/DTD/svg11.dtd">
<!-- Generated by graphviz version 2.43.0 (0)
 -->
<!-- Title: main Pages: 1 -->
<svg width="499pt" height="142pt"
 viewBox="0.00 0.00 499.00 142.00" xmlns="http://www.w3.org/2000/svg" xmlns:xlink="http://www.w3.org/1999/xlink">
<g id="graph0" class="graph" transform="scale(1 1) rotate(0) translate(4 138)">
<title>main</title>
<polygon fill="white" stroke="transparent" points="-4,4 -4,-138 495,-138 495,4 -4,4"/>
<!-- Node1 -->
<g id="node1" class="node">
<title>Node1</title>
<g id="a_node1"><a xlink:title=" ">
<polygon fill="#bfbfbf" stroke="black" points="0,-76.5 0,-95.5 41,-95.5 41,-76.5 0,-76.5"/>
<text text-anchor="middle" x="20.5" y="-83.5" font-family="Helvetica,sans-Serif" font-size="10.00">main</text>
</a>
</g>
</g>
<!-- Node2 -->
<g id="node2" class="node">
<title>Node2</title>
<g id="a_node2"><a xlink:href="main_8c.html#ab7a04a4601dde32b038dcb67d8d26de4" target="_top" xlink:title=" ">
<polygon fill="white" stroke="black" points="77.5,-114.5 77.5,-133.5 130.5,-133.5 130.5,-114.5 77.5,-114.5"/>
<text text-anchor="middle" x="104" y="-121.5" font-family="Helvetica,sans-Serif" font-size="10.00">cycle_1</text>
</a>
</g>
</g>
<!-- Node1&#45;&gt;Node2 -->
<g id="edge1" class="edge">
<title>Node1&#45;&gt;Node2</title>
<path fill="none" stroke="midnightblue" d="M41.23,-95.2C50.82,-99.67 62.56,-105.14 73.21,-110.11"/>
<polygon fill="midnightblue" stroke="midnightblue" points="72.06,-113.44 82.6,-114.49 75.02,-107.09 72.06,-113.44"/>
</g>
<!-- Node4 -->
<g id="node4" class="node">
<title>Node4</title>
<g id="a_node4"><a xlink:href="main_8c.html#a7b063caf80e71f075c09d96ea3907c2a" target="_top" xlink:title=" ">
<polygon fill="white" stroke="black" points="77,-57.5 77,-76.5 131,-76.5 131,-57.5 77,-57.5"/>
<text text-anchor="middle" x="104" y="-64.5" font-family="Helvetica,sans-Serif" font-size="10.00">process</text>
</a>
</g>
</g>
<!-- Node1&#45;&gt;Node4 -->
<g id="edge4" class="edge">
<title>Node1&#45;&gt;Node4</title>
<path fill="none" stroke="midnightblue" d="M41.23,-81.4C49.03,-79.58 58.25,-77.43 67.16,-75.36"/>
<polygon fill="midnightblue" stroke="midnightblue" points="68.04,-78.74 76.98,-73.07 66.45,-71.93 68.04,-78.74"/>
</g>
<!-- Node3 -->
<g id="node3" class="node">
<title>Node3</title>
<g id="a_node3"><a xlink:href="main_8c.html#a6549c3bd7378244fc066f305b2f5db97" target="_top" xlink:title=" ">
<polygon fill="white" stroke="black" points="187.5,-114.5 187.5,-133.5 240.5,-133.5 240.5,-114.5 187.5,-114.5"/>
<text text-anchor="middle" x="214" y="-121.5" font-family="Helvetica,sans-Serif" font-size="10.00">cycle_2</text>
</a>
</g>
</g>
<!-- Node2&#45;&gt;Node3 -->
<g id="edge2" class="edge">
<title>Node2&#45;&gt;Node3</title>
<path fill="none" stroke="midnightblue" d="M130.59,-118.16C144.48,-117.18 161.87,-116.99 177.09,-117.6"/>
<polygon fill="midnightblue" stroke="midnightblue" points="177.04,-121.1 187.21,-118.15 177.42,-114.11 177.04,-121.1"/>
</g>
<!-- Node3&#45;&gt;Node2 -->
<g id="edge3" class="edge">
<title>Node3&#45;&gt;Node2</title>
<path fill="none" stroke="midnightblue" d="M187.21,-129.85C173.3,-130.83 155.9,-131.01 140.7,-130.39"/>
<polygon fill="midnightblue" stroke="midnightblue" points="140.77,-126.89 130.59,-129.84 140.39,-133.88 140.77,-126.89"/>
</g>
<!-- Node5 -->
<g id="node5" class="node">
<title>Node5</title>
<g id="a_node5"><a xlink:href="main_8c.html#aed1ca89bdd9232d65700bcbbd5b166d1" target="_top" xlink:title=" ">
<polygon fill="white" stroke="black" points="297,-0.5 297,-19.5 398,-19.5 398,-0.5 297,-0.5"/>
<text text-anchor="middle" x="347.5" y="-7.5" font-family="Helvetica,sans-Serif" font-size="10.00">compute_product</text>
</a>
</g>
</g>
<!-- Node4&#45;&gt;Node5 -->
<g id="edge5" class="edge">
<title>Node4&#45;&gt;Node5</title>
<path fill="none" stroke="midnightblue" d="M117,-57.38C128.92,-48.39 148.11,-35.42 167,-29 205.48,-15.92 251.04,-11.22 286.64,-9.76"/>
<polygon fill="midnightblue" stroke="midnightblue" points="286.99,-13.25 296.87,-9.42 286.76,-6.25 286.99,-13.25"/>
</g>
<!-- Node7 -->
<g id="node7" class="node">
<title>Node7</title>
<g id="a_node7"><a xlink:href="main_8c.html#ac49dfb39cf4fef8c464a01ebb36b7f55" target="_top" xlink:title=" ">
<polygon fill="white" stroke="black" points="167,-38.5 167,-57.5 261,-57.5 261,-38.5 167,-38.5"/>
<text text-anchor="middle" x="214" y="-45.5" font-family="Helvetica,sans-Serif" font-size="10.00">compute_series</text>
</a>
</g>
</g>
<!-- Node4&#45;&gt;Node7 -->
<g id="edge7" class="edge">
<title>Node4&#45;&gt;Node7</title>
<path fill="none" stroke="midnightblue" d="M131.14,-62.4C138.95,-61.03 147.81,-59.47 156.77,-57.89"/>
<polygon fill="midnightblue" stroke="midnightblue" points="157.61,-61.3 166.86,-56.12 156.4,-54.4 157.61,-61.3"/>
</g>
<!-- Node10 -->
<g id="node10" class="node">
<title>Node10</title>
<g id="a_node10"><a xlink:href="main_8c.html#af07b269386225920a9e123509e54d4f1" target="_top" xlink:title=" ">
<polygon fill="white" stroke="black" points="184.5,-76.5 184.5,-95.5 243.5,-95.5 243.5,-76.5 184.5,-76.5"/>
<text text-anchor="middle" x="214" y="-83.5" font-family="Helvetica,sans-Serif" font-size="10.00">helper_B</text>
</a>
</g>
</g>
<!-- Node4&#45;&gt;Node10 -->
<g id="edge11" class="edge">
<title>Node4&#45;&gt;Node10</title>
<path fill="none" stroke="midnightblue" d="M131.14,-71.6C144.1,-73.88 160.01,-76.68 174.35,-79.2"/>
<polygon fill="midnightblue" stroke="midnightblue" points="173.99,-82.69 184.44,-80.98 175.2,-75.8 173.99,-82.69"/>
</g>
<!-- Node6 -->
<g id="node6" class="node">
<title>Node6</title>
<g id="a_node6"><a xlink:href="main_8c.html#a390660dbeb35c8538e7f24bfb067b2bc" target="_top" xlink:title=" ">
<polygon fill="white" stroke="black" points="434,-38.5 434,-57.5 491,-57.5 491,-38.5 434,-38.5"/>
<text text-anchor="middle" x="462.5" y="-45.5" font-family="Helvetica,sans-Serif" font-size="10.00">multiply</text>
</a>
</g>
</g>
<!-- Node5&#45;&gt;Node6 -->
<g id="edge6" class="edge">
<title>Node5&#45;&gt;Node6</title>
<path fill="none" stroke="midnightblue" d="M377.01,-19.59C391.28,-24.39 408.73,-30.26 424.06,-35.41"/>
<polygon fill="midnightblue" stroke="midnightblue" points="423.18,-38.81 433.78,-38.68 425.41,-32.17 423.18,-38.81"/>
</g>
<!-- Node8 -->
<g id="node8" class="node">
<title>Node8</title>
<g id="a_node8"><a xlink:href="main_8c.html#aa99823a0fc8313c9c32541ce768fb801" target="_top" xlink:title=" ">
<polygon fill="white" stroke="black" points="445,-95.5 445,-114.5 480,-114.5 480,-95.5 445,-95.5"/>
<text text-anchor="middle" x="462.5" y="-102.5" font-family="Helvetica,sans-Serif" font-size="10.00">add</text>
</a>
</g>
</g>
<!-- Node7&#45;&gt;Node8 -->
<g id="edge8" class="edge">
<title>Node7&#45;&gt;Node8</title>
<path fill="none" stroke="midnightblue" d="M261.28,-47.32C298.99,-48.05 353.15,-52.07 398,-67 413.35,-72.11 428.96,-81.38 440.86,-89.49"/>
<polygon fill="midnightblue" stroke="midnightblue" points="438.99,-92.46 449.18,-95.38 443.03,-86.74 438.99,-92.46"/>
</g>
<!-- Node9 -->
<g id="node9" class="node">
<title>Node9</title>
<g id="a_node9"><a xlink:href="main_8c.html#ab12b3cad66448e2bfc8c590d002052da" target="_top" xlink:title=" ">
<polygon fill="white" stroke="black" points="322.5,-76.5 322.5,-95.5 372.5,-95.5 372.5,-76.5 322.5,-76.5"/>
<text text-anchor="middle" x="347.5" y="-83.5" font-family="Helvetica,sans-Serif" font-size="10.00">square</text>
</a>
</g>
</g>
<!-- Node7&#45;&gt;Node9 -->
<g id="edge9" class="edge">
<title>Node7&#45;&gt;Node9</title>
<path fill="none" stroke="midnightblue" d="M248.18,-57.59C267.88,-63.28 292.79,-70.48 312.61,-76.21"/>
<polygon fill="midnightblue" stroke="midnightblue" points="311.88,-79.64 322.46,-79.05 313.82,-72.91 311.88,-79.64"/>
</g>
<!-- Node9&#45;&gt;Node6 -->
<g id="edge10" class="edge">
<title>Node9&#45;&gt;Node6</title>
<path fill="none" stroke="midnightblue" d="M372.74,-77.85C387.7,-72.82 407.2,-66.26 424.12,-60.57"/>
<polygon fill="midnightblue" stroke="midnightblue" points="425.36,-63.85 433.72,-57.34 423.13,-57.21 425.36,-63.85"/>
</g>
<!-- Node10&#45;&gt;Node9 -->
<g id="edge14" class="edge">
<title>Node10&#45;&gt;Node9</title>
<path fill="none" stroke="midnightblue" d="M243.53,-86C263.69,-86 290.82,-86 312.16,-86"/>
<polygon fill="midnightblue" stroke="midnightblue" points="312.43,-89.5 322.43,-86 312.43,-82.5 312.43,-89.5"/>
</g>
<!-- Node11 -->
<g id="node11" class="node">
<title>Node11</title>
<g id="a_node11"><a xlink:href="main_8c.html#a11ea80861cb597f71323133843ac7f75" target="_top" xlink:title=" ">
<polygon fill="white" stroke="black" points="318,-114.5 318,-133.5 377,-133.5 377,-114.5 318,-114.5"/>
<text text-anchor="middle" x="347.5" y="-121.5" font-family="Helvetica,sans-Serif" font-size="10.00">helper_A</text>
</a>
</g>
</g>
<!-- Node10&#45;&gt;Node11 -->
<g id="edge12" class="edge">
<title>Node10&#45;&gt;Node11</title>
<path fill="none" stroke="midnightblue" d="M243.53,-94.25C262.36,-99.69 287.25,-106.88 307.85,-112.83"/>
<polygon fill="midnightblue" stroke="midnightblue" points="306.99,-116.23 317.57,-115.64 308.93,-109.5 306.99,-116.23"/>
</g>
<!-- Node11&#45;&gt;Node8 -->
<g id="edge13" class="edge">
<title>Node11&#45;&gt;Node8</title>
<path fill="none" stroke="midnightblue" d="M377.01,-119.21C394.77,-116.22 417.47,-112.4 434.86,-109.48"/>
<polygon fill="midnightblue" stroke="midnightblue" points="435.64,-112.9 444.92,-107.79 434.48,-105.99 435.64,-112.9"/>
</g>
</g>
</svg>
