<?xml version="1.0" encoding="UTF-8" standalone="no"?>
<!DOCTYPE svg PUBLIC "-//W3C//DTD SVG 1.1//EN"
 "http://www.w3.org/Graphics/SVG/1.1/DTD/svg11.dtd">
<!-- Generated by graphviz version 2.43.0 (0)
 -->
<!-- Title: process Pages: 1 -->
<svg width="422pt" height="118pt"
 viewBox="0.00 0.00 422.00 117.53" xmlns="http://www.w3.org/2000/svg" xmlns:xlink="http://www.w3.org/1999/xlink">
<g id="graph0" class="graph" transform="scale(1 1) rotate(0) translate(4 113.53)">
<title>process</title>
<polygon fill="white" stroke="transparent" points="-4,4 -4,-113.53 418,-113.53 418,4 -4,4"/>
<!-- Node1 -->
<g id="node1" class="node">
<title>Node1</title>
<g id="a_node1"><a xlink:title=" ">
<polygon fill="#bfbfbf" stroke="black" points="0,-52.03 0,-71.03 54,-71.03 54,-52.03 0,-52.03"/>
<text text-anchor="middle" x="27" y="-59.03" font-family="Helvetica,sans-Serif" font-size="10.00">process</text>
</a>
</g>
</g>
<!-- Node2 -->
<g id="node2" class="node">
<title>Node2</title>
<g id="a_node2"><a xlink:href="main_8c.html#aed1ca89bdd9232d65700bcbbd5b166d1" target="_top" xlink:title=" ">
<polygon fill="white" stroke="black" points="220,-90.03 220,-109.03 321,-109.03 321,-90.03 220,-90.03"/>
<text text-anchor="middle" x="270.5" y="-97.03" font-family="Helvetica,sans-Serif" font-size="10.00">compute_product</text>
</a>
</g>
</g>
<!-- Node1&#45;&gt;Node2 -->
<g id="edge1" class="edge">
<title>Node1&#45;&gt;Node2</title>
<path fill="none" stroke="midnightblue" d="M54.26,-70.8C65.19,-74.33 78.09,-78.09 90,-80.53 129.54,-88.6 174.73,-93.36 209.87,-96.09"/>
<polygon fill="midnightblue" stroke="midnightblue" points="209.74,-99.59 219.97,-96.85 210.26,-92.61 209.74,-99.59"/>
</g>
<!-- Node4 -->
<g id="node4" class="node">
<title>Node4</title>
<g id="a_node4"><a xlink:href="main_8c.html#ac49dfb39cf4fef8c464a01ebb36b7f55" target="_top" xlink:title=" ">
<polygon fill="white" stroke="black" points="90,-14.03 90,-33.03 184,-33.03 184,-14.03 90,-14.03"/>
<text text-anchor="middle" x="137" y="-21.03" font-family="Helvetica,sans-Serif" font-size="10.00">compute_series</text>
</a>
</g>
</g>
<!-- Node1&#45;&gt;Node4 -->
<g id="edge3" class="edge">
<title>Node1&#45;&gt;Node4</title>
<path fill="none" stroke="midnightblue" d="M54.14,-52.33C67.77,-47.53 84.64,-41.6 99.53,-36.36"/>
<polygon fill="midnightblue" stroke="midnightblue" points="100.7,-39.66 108.97,-33.04 98.37,-33.05 100.7,-39.66"/>
</g>
<!-- Node7 -->
<g id="node7" class="node">
<title>Node7</title>
<g id="a_node7"><a xlink:href="main_8c.html#af07b269386225920a9e123509e54d4f1" target="_top" xlink:title=" ">
<polygon fill="white" stroke="black" points="107.5,-52.03 107.5,-71.03 166.5,-71.03 166.5,-52.03 107.5,-52.03"/>
<text text-anchor="middle" x="137" y="-59.03" font-family="Helvetica,sans-Serif" font-size="10.00">helper_B</text>
</a>
</g>
</g>
<!-- Node1&#45;&gt;Node7 -->
<g id="edge7" class="edge">
<title>Node1&#45;&gt;Node7</title>
<path fill="none" stroke="midnightblue" d="M54.14,-61.53C67.1,-61.53 83.01,-61.53 97.35,-61.53"/>
<polygon fill="midnightblue" stroke="midnightblue" points="97.44,-65.03 107.44,-61.53 97.44,-58.03 97.44,-65.03"/>
</g>
<!-- Node3 -->
<g id="node3" class="node">
<title>Node3</title>
<g id="a_node3"><a xlink:href="main_8c.html#a390660dbeb35c8538e7f24bfb067b2bc" target="_top" xlink:title=" ">
<polygon fill="white" stroke="black" points="357,-71.03 357,-90.03 414,-90.03 414,-71.03 357,-71.03"/>
<text text-anchor="middle" x="385.5" y="-78.03" font-family="Helvetica,sans-Serif" font-size="10.00">multiply</text>
</a>
</g>
</g>
<!-- Node2&#45;&gt;Node3 -->
<g id="edge2" class="edge">
<title>Node2&#45;&gt;Node3</title>
<path fill="none" stroke="midnightblue" d="M321.06,-91.19C329.65,-89.75 338.46,-88.27 346.67,-86.89"/>
<polygon fill="midnightblue" stroke="midnightblue" points="347.42,-90.31 356.7,-85.2 346.26,-83.41 347.42,-90.31"/>
</g>
<!-- Node5 -->
<g id="node5" class="node">
<title>Node5</title>
<g id="a_node5"><a xlink:href="main_8c.html#aa99823a0fc8313c9c32541ce768fb801" target="_top" xlink:title=" ">
<polygon fill="white" stroke="black" points="368,-14.03 368,-33.03 403,-33.03 403,-14.03 368,-14.03"/>
<text text-anchor="middle" x="385.5" y="-21.03" font-family="Helvetica,sans-Serif" font-size="10.00">add</text>
</a>
</g>
</g>
<!-- Node4&#45;&gt;Node5 -->
<g id="edge4" class="edge">
<title>Node4&#45;&gt;Node5</title>
<path fill="none" stroke="midnightblue" d="M171.21,-14.02C186.01,-10.25 203.74,-6.39 220,-4.53 264.6,0.57 276.58,1.98 321,-4.53 333.47,-6.35 346.88,-10.09 358.16,-13.77"/>
<polygon fill="midnightblue" stroke="midnightblue" points="357.23,-17.15 367.82,-17.08 359.5,-10.53 357.23,-17.15"/>
</g>
<!-- Node6 -->
<g id="node6" class="node">
<title>Node6</title>
<g id="a_node6"><a xlink:href="main_8c.html#ab12b3cad66448e2bfc8c590d002052da" target="_top" xlink:title=" ">
<polygon fill="white" stroke="black" points="245.5,-14.03 245.5,-33.03 295.5,-33.03 295.5,-14.03 245.5,-14.03"/>
<text text-anchor="middle" x="270.5" y="-21.03" font-family="Helvetica,sans-Serif" font-size="10.00">square</text>
</a>
</g>
</g>
<!-- Node4&#45;&gt;Node6 -->
<g id="edge5" class="edge">
<title>Node4&#45;&gt;Node6</title>
<path fill="none" stroke="midnightblue" d="M184.36,-23.53C201.06,-23.53 219.6,-23.53 235.1,-23.53"/>
<polygon fill="midnightblue" stroke="midnightblue" points="235.29,-27.03 245.29,-23.53 235.29,-20.03 235.29,-27.03"/>
</g>
<!-- Node6&#45;&gt;Node3 -->
<g id="edge6" class="edge">
<title>Node6&#45;&gt;Node3</title>
<path fill="none" stroke="midnightblue" d="M295.52,-31.79C303.73,-34.87 312.89,-38.58 321,-42.53 334.76,-49.22 349.47,-57.92 361.26,-65.3"/>
<polygon fill="midnightblue" stroke="midnightblue" points="359.7,-68.46 370.02,-70.88 363.46,-62.55 359.7,-68.46"/>
</g>
<!-- Node7&#45;&gt;Node6 -->
<g id="edge10" class="edge">
<title>Node7&#45;&gt;Node6</title>
<path fill="none" stroke="midnightblue" d="M166.53,-53.28C186.88,-47.4 214.31,-39.47 235.75,-33.28"/>
<polygon fill="midnightblue" stroke="midnightblue" points="236.79,-36.62 245.43,-30.48 234.85,-29.9 236.79,-36.62"/>
</g>
<!-- Node8 -->
<g id="node8" class="node">
<title>Node8</title>
<g id="a_node8"><a xlink:href="main_8c.html#a11ea80861cb597f71323133843ac7f75" target="_top" xlink:title=" ">
<polygon fill="white" stroke="black" points="241,-52.03 241,-71.03 300,-71.03 300,-52.03 241,-52.03"/>
<text text-anchor="middle" x="270.5" y="-59.03" font-family="Helvetica,sans-Serif" font-size="10.00">helper_A</text>
</a>
</g>
</g>
<!-- Node7&#45;&gt;Node8 -->
<g id="edge8" class="edge">
<title>Node7&#45;&gt;Node8</title>
<path fill="none" stroke="midnightblue" d="M166.53,-61.53C185.27,-61.53 210.03,-61.53 230.57,-61.53"/>
<polygon fill="midnightblue" stroke="midnightblue" points="230.57,-65.03 240.57,-61.53 230.57,-58.03 230.57,-65.03"/>
</g>
<!-- Node8&#45;&gt;Node5 -->
<g id="edge9" class="edge">
<title>Node8&#45;&gt;Node5</title>
<path fill="none" stroke="midnightblue" d="M300.01,-51.94C317.94,-45.91 340.9,-38.19 358.35,-32.32"/>
<polygon fill="midnightblue" stroke="midnightblue" points="359.55,-35.61 367.92,-29.1 357.32,-28.97 359.55,-35.61"/>
</g>
</g>
</svg>
