<?xml version="1.0" encoding="UTF-8" standalone="no"?>
<!DOCTYPE svg PUBLIC "-//W3C//DTD SVG 1.1//EN"
 "http://www.w3.org/Graphics/SVG/1.1/DTD/svg11.dtd">
<!-- Generated by graphviz version 2.49.0 (20210829.0051)
 -->
<!-- Title: G Pages: 1 -->
<svg width="508pt" height="161pt"
 viewBox="0.00 0.00 508.00 161.47" xmlns="http://www.w3.org/2000/svg" xmlns:xlink="http://www.w3.org/1999/xlink">
<g id="graph0" class="graph" transform="scale(1 1) rotate(0) translate(4 157.47)">
<title>G</title>
<polygon fill="white" stroke="transparent" points="-4,4 -4,-157.47 504,-157.47 504,4 -4,4"/>
<!-- helper_A -->
<g id="node1" class="node">
<title>helper_A</title>
<g id="a_node1"><a xlink:href="$main_8c.html#a11ea80861cb597f71323133843ac7f75" xlink:title=" ">
<polygon fill="white" stroke="black" points="327,-57.97 327,-76.97 386,-76.97 386,-57.97 327,-57.97"/>
<text text-anchor="middle" x="356.5" y="-64.97" font-family="Helvetica,sans-Serif" font-size="10.00">helper_A</text>
</a>
</g>
</g>
<!-- add -->
<g id="node2" class="node">
<title>add</title>
<g id="a_node2"><a xlink:href="$main_8c.html#aa99823a0fc8313c9c32541ce768fb801" xlink:title=" ">
<polygon fill="white" stroke="black" points="454,-57.97 454,-76.97 489,-76.97 489,-57.97 454,-57.97"/>
<text text-anchor="middle" x="471.5" y="-64.97" font-family="Helvetica,sans-Serif" font-size="10.00">add</text>
</a>
</g>
</g>
<!-- helper_A&#45;&gt;add -->
<g id="edge1" class="edge">
<title>helper_A&#45;&gt;add</title>
<path fill="none" stroke="midnightblue" d="M363.26,-57.91C380.18,-45.47 430.14,-43.89 455.45,-53.18"/>
<polygon fill="midnightblue" stroke="midnightblue" points="454.11,-56.42 464.62,-57.82 457.28,-50.18 454.11,-56.42"/>
</g>
<!-- helper_A&#45;&gt;add -->
<g id="edge12" class="edge">
<title>helper_A&#45;&gt;add</title>
<path fill="none" stroke="midnightblue" d="M386.01,-61.52C403.77,-60.42 426.47,-60.46 443.86,-61.64"/>
<polygon fill="midnightblue" stroke="midnightblue" points="443.65,-65.14 453.92,-62.53 444.26,-58.16 443.65,-65.14"/>
</g>
<!-- helper_A&#45;&gt;add -->
<g id="edge32" class="edge">
<title>helper_A&#45;&gt;add</title>
<path fill="none" stroke="midnightblue" d="M386.01,-73.42C403.77,-74.53 426.47,-74.49 443.86,-73.3"/>
<polygon fill="midnightblue" stroke="midnightblue" points="444.26,-76.78 453.92,-72.42 443.65,-69.81 444.26,-76.78"/>
</g>
<!-- helper_A&#45;&gt;add -->
<g id="edge36" class="edge">
<title>helper_A&#45;&gt;add</title>
<path fill="none" stroke="midnightblue" d="M363.26,-77.03C380.18,-89.48 430.14,-91.06 455.45,-81.77"/>
<polygon fill="midnightblue" stroke="midnightblue" points="457.28,-84.77 464.62,-77.12 454.11,-78.52 457.28,-84.77"/>
</g>
<!-- cycle_2 -->
<g id="node3" class="node">
<title>cycle_2</title>
<g id="a_node3"><a xlink:href="$main_8c.html#a6549c3bd7378244fc066f305b2f5db97" xlink:title=" ">
<polygon fill="white" stroke="black" points="196.5,-10.97 196.5,-29.97 249.5,-29.97 249.5,-10.97 196.5,-10.97"/>
<text text-anchor="middle" x="223" y="-17.97" font-family="Helvetica,sans-Serif" font-size="10.00">cycle_2</text>
</a>
</g>
</g>
<!-- cycle_1 -->
<g id="node4" class="node">
<title>cycle_1</title>
<g id="a_node4"><a xlink:href="$main_8c.html#ab7a04a4601dde32b038dcb67d8d26de4" xlink:title=" ">
<polygon fill="white" stroke="black" points="86.5,-10.97 86.5,-29.97 139.5,-29.97 139.5,-10.97 86.5,-10.97"/>
<text text-anchor="middle" x="113" y="-17.97" font-family="Helvetica,sans-Serif" font-size="10.00">cycle_1</text>
</a>
</g>
</g>
<!-- cycle_2&#45;&gt;cycle_1 -->
<g id="edge2" class="edge">
<title>cycle_2&#45;&gt;cycle_1</title>
<path fill="none" stroke="midnightblue" d="M196.21,-14.62C182.3,-13.64 164.9,-13.46 149.7,-14.08"/>
<polygon fill="midnightblue" stroke="midnightblue" points="149.39,-10.59 139.59,-14.63 149.77,-17.58 149.39,-10.59"/>
</g>
<!-- cycle_2&#45;&gt;cycle_1 -->
<g id="edge16" class="edge">
<title>cycle_2&#45;&gt;cycle_1</title>
<path fill="none" stroke="midnightblue" d="M196.21,-26.33C182.3,-27.3 164.9,-27.48 149.7,-26.87"/>
<polygon fill="midnightblue" stroke="midnightblue" points="149.77,-23.36 139.59,-26.31 149.39,-30.35 149.77,-23.36"/>
</g>
<!-- cycle_2&#45;&gt;cycle_1 -->
<g id="edge22" class="edge">
<title>cycle_2&#45;&gt;cycle_1</title>
<path fill="none" stroke="midnightblue" d="M216.38,-30.12C200.12,-42.46 152.7,-44.03 128.53,-34.83"/>
<polygon fill="midnightblue" stroke="midnightblue" points="129.98,-31.63 119.5,-30.03 126.7,-37.81 129.98,-31.63"/>
</g>
<!-- cycle_1&#45;&gt;cycle_2 -->
<g id="edge3" class="edge">
<title>cycle_1&#45;&gt;cycle_2</title>
<path fill="none" stroke="midnightblue" d="M139.59,-14.63C153.48,-13.65 170.87,-13.46 186.09,-14.07"/>
<polygon fill="midnightblue" stroke="midnightblue" points="186.04,-17.57 196.21,-14.62 186.42,-10.58 186.04,-17.57"/>
</g>
<!-- cycle_1&#45;&gt;cycle_2 -->
<g id="edge15" class="edge">
<title>cycle_1&#45;&gt;cycle_2</title>
<path fill="none" stroke="midnightblue" d="M139.59,-26.31C153.48,-27.29 170.87,-27.48 186.09,-26.87"/>
<polygon fill="midnightblue" stroke="midnightblue" points="186.42,-30.36 196.21,-26.33 186.04,-23.37 186.42,-30.36"/>
</g>
<!-- cycle_1&#45;&gt;cycle_2 -->
<g id="edge21" class="edge">
<title>cycle_1&#45;&gt;cycle_2</title>
<path fill="none" stroke="midnightblue" d="M119.5,-10.91C135.61,1.48 183,3.1 207.29,-6.05"/>
<polygon fill="midnightblue" stroke="midnightblue" points="205.9,-9.27 216.38,-10.82 209.15,-3.07 205.9,-9.27"/>
</g>
<!-- process -->
<g id="node5" class="node">
<title>process</title>
<g id="a_node5"><a xlink:href="$main_8c.html#a7b063caf80e71f075c09d96ea3907c2a" xlink:title=" ">
<polygon fill="white" stroke="black" points="86,-86.97 86,-105.97 140,-105.97 140,-86.97 86,-86.97"/>
<text text-anchor="middle" x="113" y="-93.97" font-family="Helvetica,sans-Serif" font-size="10.00">process</text>
</a>
</g>
</g>
<!-- compute_product -->
<g id="node6" class="node">
<title>compute_product</title>
<g id="a_node6"><a xlink:href="$main_8c.html#aed1ca89bdd9232d65700bcbbd5b166d1" xlink:title=" ">
<polygon fill="#bfbfbf" stroke="black" points="306,-133.97 306,-152.97 407,-152.97 407,-133.97 306,-133.97"/>
<text text-anchor="middle" x="356.5" y="-140.97" font-family="Helvetica,sans-Serif" font-size="10.00">compute_product</text>
</a>
</g>
</g>
<!-- process&#45;&gt;compute_product -->
<g id="edge4" class="edge">
<title>process&#45;&gt;compute_product</title>
<path fill="none" stroke="midnightblue" d="M140.02,-97.05C151.03,-99.87 164.04,-103.72 176,-106.47 223.84,-117.47 279.86,-125.45 316.42,-132.03"/>
<polygon fill="midnightblue" stroke="midnightblue" points="316.19,-135.55 326.66,-133.94 317.47,-128.67 316.19,-135.55"/>
</g>
<!-- process&#45;&gt;compute_product -->
<g id="edge24" class="edge">
<title>process&#45;&gt;compute_product</title>
<path fill="none" stroke="midnightblue" d="M123.55,-106.14C135.63,-113.05 157.13,-120.13 176,-124.47 215.59,-133.58 260.77,-140.61 295.9,-144.2"/>
<polygon fill="midnightblue" stroke="midnightblue" points="295.71,-147.7 306,-145.16 296.38,-140.73 295.71,-147.7"/>
</g>
<!-- compute_series -->
<g id="node8" class="node">
<title>compute_series</title>
<g id="a_node8"><a xlink:href="$main_8c.html#ac49dfb39cf4fef8c464a01ebb36b7f55" xlink:title=" ">
<polygon fill="white" stroke="black" points="176,-48.97 176,-67.97 270,-67.97 270,-48.97 176,-48.97"/>
<text text-anchor="middle" x="223" y="-55.97" font-family="Helvetica,sans-Serif" font-size="10.00">compute_series</text>
</a>
</g>
</g>
<!-- process&#45;&gt;compute_series -->
<g id="edge6" class="edge">
<title>process&#45;&gt;compute_series</title>
<path fill="none" stroke="midnightblue" d="M128.12,-86.77C137.97,-82.03 151.82,-76.48 165.86,-71.48"/>
<polygon fill="midnightblue" stroke="midnightblue" points="167.26,-74.7 175.56,-68.12 164.97,-68.09 167.26,-74.7"/>
</g>
<!-- process&#45;&gt;compute_series -->
<g id="edge26" class="edge">
<title>process&#45;&gt;compute_series</title>
<path fill="none" stroke="midnightblue" d="M140.14,-93.15C158.1,-88.07 181.7,-79.69 198.95,-72.23"/>
<polygon fill="midnightblue" stroke="midnightblue" points="200.63,-75.31 208.28,-67.98 197.73,-68.94 200.63,-75.31"/>
</g>
<!-- helper_B -->
<g id="node10" class="node">
<title>helper_B</title>
<g id="a_node10"><a xlink:href="$main_8c.html#af07b269386225920a9e123509e54d4f1" xlink:title=" ">
<polygon fill="#bfbfbf" stroke="black" points="193.5,-86.97 193.5,-105.97 252.5,-105.97 252.5,-86.97 193.5,-86.97"/>
<text text-anchor="middle" x="223" y="-93.97" font-family="Helvetica,sans-Serif" font-size="10.00">helper_B</text>
</a>
</g>
</g>
<!-- process&#45;&gt;helper_B -->
<g id="edge10" class="edge">
<title>process&#45;&gt;helper_B</title>
<path fill="none" stroke="midnightblue" d="M140.14,-90.59C153.1,-89.7 169.01,-89.49 183.35,-89.97"/>
<polygon fill="midnightblue" stroke="midnightblue" points="183.29,-93.47 193.44,-90.44 183.62,-86.48 183.29,-93.47"/>
</g>
<!-- process&#45;&gt;helper_B -->
<g id="edge30" class="edge">
<title>process&#45;&gt;helper_B</title>
<path fill="none" stroke="midnightblue" d="M140.14,-102.35C153.1,-103.24 169.01,-103.45 183.35,-102.97"/>
<polygon fill="midnightblue" stroke="midnightblue" points="183.62,-106.47 193.44,-102.51 183.29,-99.47 183.62,-106.47"/>
</g>
<!-- multiply -->
<g id="node7" class="node">
<title>multiply</title>
<g id="a_node7"><a xlink:href="$main_8c.html#a390660dbeb35c8538e7f24bfb067b2bc" xlink:title=" ">
<polygon fill="white" stroke="black" points="443,-95.97 443,-114.97 500,-114.97 500,-95.97 443,-95.97"/>
<text text-anchor="middle" x="471.5" y="-102.97" font-family="Helvetica,sans-Serif" font-size="10.00">multiply</text>
</a>
</g>
</g>
<!-- compute_product&#45;&gt;multiply -->
<g id="edge5" class="edge">
<title>compute_product&#45;&gt;multiply</title>
<path fill="none" stroke="midnightblue" d="M364.91,-133.86C378.55,-123.61 408.46,-111.66 432.98,-105.29"/>
<polygon fill="midnightblue" stroke="midnightblue" points="433.81,-108.69 442.75,-103 432.21,-101.88 433.81,-108.69"/>
</g>
<!-- compute_product&#45;&gt;multiply -->
<g id="edge25" class="edge">
<title>compute_product&#45;&gt;multiply</title>
<path fill="none" stroke="midnightblue" d="M386.01,-133.88C400.28,-129.09 417.73,-123.22 433.06,-118.06"/>
<polygon fill="midnightblue" stroke="midnightblue" points="434.41,-121.3 442.78,-114.8 432.18,-114.67 434.41,-121.3"/>
</g>
<!-- compute_product&#45;&gt;multiply -->
<g id="edge34" class="edge">
<title>compute_product&#45;&gt;multiply</title>
<path fill="none" stroke="midnightblue" d="M407.06,-140.21C424.1,-134.93 441.98,-127.71 454.4,-120.66"/>
<polygon fill="midnightblue" stroke="midnightblue" points="456.55,-123.44 463.07,-115.09 452.77,-117.56 456.55,-123.44"/>
</g>
<!-- compute_series&#45;&gt;add -->
<g id="edge7" class="edge">
<title>compute_series&#45;&gt;add</title>
<path fill="none" stroke="midnightblue" d="M232.82,-48.83C259.33,-33.85 340.57,-20.75 407,-30.47 426.24,-33.29 447.75,-40.67 460.15,-50.54"/>
<polygon fill="midnightblue" stroke="midnightblue" points="457.66,-53 467.14,-57.74 462.69,-48.12 457.66,-53"/>
</g>
<!-- compute_series&#45;&gt;add -->
<g id="edge17" class="edge">
<title>compute_series&#45;&gt;add</title>
<path fill="none" stroke="midnightblue" d="M270.11,-50.89C307.25,-46 360.72,-41.7 407,-48.47 419.47,-50.3 432.88,-54.04 444.16,-57.72"/>
<polygon fill="midnightblue" stroke="midnightblue" points="443.23,-61.1 453.82,-61.03 445.5,-54.48 443.23,-61.1"/>
</g>
<!-- compute_series&#45;&gt;add -->
<g id="edge27" class="edge">
<title>compute_series&#45;&gt;add</title>
<path fill="none" stroke="midnightblue" d="M270.11,-65.48C307.25,-64 360.72,-59.7 407,-66.47 419.34,-68.28 432.61,-71.96 443.81,-74.24"/>
<polygon fill="midnightblue" stroke="midnightblue" points="443.39,-77.72 453.82,-75.89 444.52,-70.81 443.39,-77.72"/>
</g>
<!-- square -->
<g id="node9" class="node">
<title>square</title>
<g id="a_node9"><a xlink:href="$main_8c.html#ab12b3cad66448e2bfc8c590d002052da" xlink:title=" ">
<polygon fill="white" stroke="black" points="331.5,-95.97 331.5,-114.97 381.5,-114.97 381.5,-95.97 331.5,-95.97"/>
<text text-anchor="middle" x="356.5" y="-102.97" font-family="Helvetica,sans-Serif" font-size="10.00">square</text>
</a>
</g>
</g>
<!-- compute_series&#45;&gt;square -->
<g id="edge8" class="edge">
<title>compute_series&#45;&gt;square</title>
<path fill="none" stroke="midnightblue" d="M270.36,-62.08C294.1,-69.21 321.54,-80.22 338.71,-90.09"/>
<polygon fill="midnightblue" stroke="midnightblue" points="337.21,-93.29 347.52,-95.74 340.99,-87.4 337.21,-93.29"/>
</g>
<!-- compute_series&#45;&gt;square -->
<g id="edge18" class="edge">
<title>compute_series&#45;&gt;square</title>
<path fill="none" stroke="midnightblue" d="M250.61,-67.98C271.05,-75.29 299.41,-85.43 321.49,-93.32"/>
<polygon fill="midnightblue" stroke="midnightblue" points="320.55,-96.7 331.15,-96.77 322.91,-90.11 320.55,-96.7"/>
</g>
<!-- compute_series&#45;&gt;square -->
<g id="edge28" class="edge">
<title>compute_series&#45;&gt;square</title>
<path fill="none" stroke="midnightblue" d="M231.83,-68.1C249.12,-80.86 291.41,-97.69 321.72,-105.37"/>
<polygon fill="midnightblue" stroke="midnightblue" points="320.96,-108.78 331.49,-107.6 322.52,-101.96 320.96,-108.78"/>
</g>
<!-- square&#45;&gt;multiply -->
<g id="edge9" class="edge">
<title>square&#45;&gt;multiply</title>
<path fill="none" stroke="midnightblue" d="M360.52,-95.96C374.71,-75.31 435.08,-72.95 459.84,-88.87"/>
<polygon fill="midnightblue" stroke="midnightblue" points="457.69,-91.65 467.42,-95.87 462.44,-86.51 457.69,-91.65"/>
</g>
<!-- square&#45;&gt;multiply -->
<g id="edge14" class="edge">
<title>square&#45;&gt;multiply</title>
<path fill="none" stroke="midnightblue" d="M372.74,-95.9C391.38,-91.38 423.19,-90.76 445.44,-94.04"/>
<polygon fill="midnightblue" stroke="midnightblue" points="445.02,-97.52 455.5,-95.95 446.33,-90.64 445.02,-97.52"/>
</g>
<!-- square&#45;&gt;multiply -->
<g id="edge19" class="edge">
<title>square&#45;&gt;multiply</title>
<path fill="none" stroke="midnightblue" d="M381.74,-105.47C396.56,-105.47 415.84,-105.47 432.64,-105.47"/>
<polygon fill="midnightblue" stroke="midnightblue" points="432.72,-108.97 442.72,-105.47 432.72,-101.97 432.72,-108.97"/>
</g>
<!-- square&#45;&gt;multiply -->
<g id="edge29" class="edge">
<title>square&#45;&gt;multiply</title>
<path fill="none" stroke="midnightblue" d="M372.74,-115.05C391.38,-119.56 423.19,-120.18 445.44,-116.91"/>
<polygon fill="midnightblue" stroke="midnightblue" points="446.33,-120.3 455.5,-114.99 445.02,-113.43 446.33,-120.3"/>
</g>
<!-- square&#45;&gt;multiply -->
<g id="edge38" class="edge">
<title>square&#45;&gt;multiply</title>
<path fill="none" stroke="midnightblue" d="M360.52,-114.99C374.71,-135.63 435.08,-137.99 459.84,-122.08"/>
<polygon fill="midnightblue" stroke="midnightblue" points="462.44,-124.44 467.42,-115.08 457.69,-119.29 462.44,-124.44"/>
</g>
<!-- helper_B&#45;&gt;helper_A -->
<g id="edge11" class="edge">
<title>helper_B&#45;&gt;helper_A</title>
<path fill="none" stroke="midnightblue" d="M233.88,-86.75C251.28,-77.25 288.23,-67.48 316.87,-63.57"/>
<polygon fill="midnightblue" stroke="midnightblue" points="317.46,-67.02 326.99,-62.41 316.66,-60.07 317.46,-67.02"/>
</g>
<!-- helper_B&#45;&gt;helper_A -->
<g id="edge31" class="edge">
<title>helper_B&#45;&gt;helper_A</title>
<path fill="none" stroke="midnightblue" d="M252.53,-90.18C271.27,-86.05 296.03,-80.59 316.57,-76.06"/>
<polygon fill="midnightblue" stroke="midnightblue" points="317.56,-79.42 326.57,-73.85 316.05,-72.59 317.56,-79.42"/>
</g>
<!-- helper_B&#45;&gt;helper_A -->
<g id="edge35" class="edge">
<title>helper_B&#45;&gt;helper_A</title>
<path fill="none" stroke="midnightblue" d="M252.53,-101.54C277.97,-99.23 314.47,-90.67 336.49,-81.5"/>
<polygon fill="midnightblue" stroke="midnightblue" points="338.22,-84.55 345.77,-77.12 335.23,-78.22 338.22,-84.55"/>
</g>
<!-- helper_B&#45;&gt;square -->
<g id="edge13" class="edge">
<title>helper_B&#45;&gt;square</title>
<path fill="none" stroke="midnightblue" d="M252.53,-87.07C276.29,-85.61 309.72,-88.14 331.97,-93.23"/>
<polygon fill="midnightblue" stroke="midnightblue" points="331.33,-96.68 341.9,-95.92 333.17,-89.92 331.33,-96.68"/>
</g>
<!-- helper_B&#45;&gt;square -->
<g id="edge33" class="edge">
<title>helper_B&#45;&gt;square</title>
<path fill="none" stroke="midnightblue" d="M252.53,-98.43C272.69,-99.8 299.82,-101.66 321.16,-103.12"/>
<polygon fill="midnightblue" stroke="midnightblue" points="321.21,-106.63 331.43,-103.82 321.69,-99.65 321.21,-106.63"/>
</g>
<!-- helper_B&#45;&gt;square -->
<g id="edge37" class="edge">
<title>helper_B&#45;&gt;square</title>
<path fill="none" stroke="midnightblue" d="M237.58,-106.02C257.04,-112.37 293.53,-116.02 320.79,-115.16"/>
<polygon fill="midnightblue" stroke="midnightblue" points="321.31,-118.64 331.09,-114.57 320.91,-111.65 321.31,-118.64"/>
</g>
<!-- main -->
<g id="node11" class="node">
<title>main</title>
<g id="a_node11"><a xlink:title=" ">
<polygon fill="#bfbfbf" stroke="black" points="4.5,-48.97 4.5,-67.97 45.5,-67.97 45.5,-48.97 4.5,-48.97"/>
<text text-anchor="middle" x="25" y="-55.97" font-family="Helvetica,sans-Serif" font-size="10.00">main</text>
</a>
</g>
</g>
<!-- main&#45;&gt;cycle_1 -->
<g id="edge20" class="edge">
<title>main&#45;&gt;cycle_1</title>
<path fill="none" stroke="midnightblue" d="M45.51,-49.85C56.07,-45.18 69.36,-39.31 81.27,-34.05"/>
<polygon fill="midnightblue" stroke="midnightblue" points="82.72,-37.24 90.45,-29.99 79.89,-30.83 82.72,-37.24"/>
</g>
<!-- main&#45;&gt;process -->
<g id="edge23" class="edge">
<title>main&#45;&gt;process</title>
<path fill="none" stroke="midnightblue" d="M45.51,-67.1C56.07,-71.76 69.36,-77.63 81.27,-82.89"/>
<polygon fill="midnightblue" stroke="midnightblue" points="79.89,-86.11 90.45,-86.95 82.72,-79.71 79.89,-86.11"/>
</g>
<!-- main.c -->
<g id="node12" class="node">
<title>main.c</title>
<g id="a_node12"><a xlink:title=" ">
<polygon fill="#bfbfbf" stroke="black" points="0,-124.97 0,-143.97 50,-143.97 50,-124.97 0,-124.97"/>
<text text-anchor="middle" x="25" y="-131.97" font-family="Helvetica,sans-Serif" font-size="10.00">main.c</text>
</a>
</g>
</g>
<!-- stdio.h -->
<g id="node13" class="node">
<title>stdio.h</title>
<g id="a_node13"><a xlink:title=" ">
<polygon fill="white" stroke="#bfbfbf" points="88,-124.97 88,-143.97 138,-143.97 138,-124.97 88,-124.97"/>
<text text-anchor="middle" x="113" y="-131.97" font-family="Helvetica,sans-Serif" font-size="10.00">stdio.h</text>
</a>
</g>
</g>
<!-- main.c&#45;&gt;stdio.h -->
<g id="edge39" class="edge">
<title>main.c&#45;&gt;stdio.h</title>
<path fill="none" stroke="midnightblue" d="M50.41,-134.47C58.93,-134.47 68.65,-134.47 77.81,-134.47"/>
<polygon fill="midnightblue" stroke="midnightblue" points="77.82,-137.97 87.82,-134.47 77.82,-130.97 77.82,-137.97"/>
</g>
</g>
</svg>
