<?xml version="1.0" encoding="UTF-8" standalone="no"?>
<!DOCTYPE svg PUBLIC "-//W3C//DTD SVG 1.1//EN"
 "http://www.w3.org/Graphics/SVG/1.1/DTD/svg11.dtd">
<!-- Generated by graphviz version 2.49.0 (20210829.0051)
 -->
<!-- Pages: 1 -->
<svg width="296pt" height="116pt"
 viewBox="0.00 0.00 296.19 116.00" xmlns="http://www.w3.org/2000/svg" xmlns:xlink="http://www.w3.org/1999/xlink">
<g id="graph0" class="graph" transform="scale(1 1) rotate(0) translate(4 112)">
<polygon fill="white" stroke="transparent" points="-4,4 -4,-112 292.19,-112 292.19,4 -4,4"/>
<!-- compute_series -->
<g id="node1" class="node">
<title>compute_series</title>
<ellipse fill="none" stroke="black" cx="83.19" cy="-18" rx="83.39" ry="18"/>
<text text-anchor="middle" x="83.19" y="-14.3" font-family="Times,serif" font-size="14.00">compute_series</text>
</g>
<!-- process -->
<g id="node2" class="node">
<title>process</title>
<ellipse fill="none" stroke="black" cx="159.19" cy="-90" rx="46.29" ry="18"/>
<text text-anchor="middle" x="159.19" y="-86.3" font-family="Times,serif" font-size="14.00">process</text>
</g>
<!-- process&#45;&gt;compute_series -->
<g id="edge1" class="edge">
<title>process&#45;&gt;compute_series</title>
<path fill="none" stroke="black" d="M141.95,-73.12C132.22,-64.16 119.88,-52.79 109.02,-42.79"/>
<polygon fill="black" stroke="black" points="111.16,-40 101.43,-35.8 106.41,-45.15 111.16,-40"/>
</g>
<!-- helper_B -->
<g id="node3" class="node">
<title>helper_B</title>
<ellipse fill="none" stroke="black" cx="236.19" cy="-18" rx="51.99" ry="18"/>
<text text-anchor="middle" x="236.19" y="-14.3" font-family="Times,serif" font-size="14.00">helper_B</text>
</g>
<!-- process&#45;&gt;helper_B -->
<g id="edge2" class="edge">
<title>process&#45;&gt;helper_B</title>
<path fill="none" stroke="black" d="M176.67,-73.12C186.83,-63.87 199.82,-52.07 211.07,-41.84"/>
<polygon fill="black" stroke="black" points="213.48,-44.38 218.52,-35.06 208.77,-39.2 213.48,-44.38"/>
</g>
</g>
</svg>
